<svg width="95" height="46" viewBox="0 0 95 46" fill="none" xmlns="http://www.w3.org/2000/svg">
<rect x="49" width="46" height="46" fill="#4D54FF"/>
<path d="M80.9112 8.26488H57.2649V31.9112H80.9112V8.26488Z" fill="#4D54FF"/>
<path d="M80.9112 8.26488V31.9112H57.2649L63.087 37.7352H86.7352V14.087L80.9112 8.26488Z" fill="#F2F2F2"/>
<rect width="46" height="46" fill="#F8DF05"/>
<path d="M31.9112 8.26488H8.26488V31.9112H31.9112V8.26488Z" fill="#F8DF05"/>
<path d="M31.9112 8.26488V31.9112H8.26488L14.087 37.7352H37.7352V14.087L31.9112 8.26488Z" fill="#1A1C1C"/>
<g clip-path="url(#clip0_9_15)">
<path d="M16.331 24.1095C15.7343 24.1352 15.1634 24.2943 14.5579 24.2795C14.2865 24.2728 13.9983 24.2249 13.7396 24.1426C13.5923 24.0958 13.4503 24.0005 13.2963 23.9809C13.1262 23.9592 12.9555 24.0366 12.7849 24.0408C12.5118 24.0476 12.2676 23.975 12.0006 23.939C12.0698 24.3269 12.4025 24.6391 12.7167 24.8475C13.5177 25.379 14.5917 25.3893 15.5126 25.2972C15.7296 25.2755 15.9463 25.2484 16.1605 25.2073C16.2695 25.1864 16.4208 25.1316 16.531 25.1628C16.6622 25.1998 16.6919 25.3975 16.7336 25.5075C16.856 25.8307 16.9828 26.1498 17.1318 26.4622C17.5586 27.3569 18.3267 28.429 19.3997 28.5363C20.4085 28.6373 21.1968 28.0526 21.7412 27.2465C22.5832 25.9997 22.9722 24.5182 23.2318 23.0525C23.2715 22.8281 23.2972 22.5971 23.3226 22.3706C23.3356 22.2556 23.3339 22.1017 23.3901 21.9986C23.4595 21.8712 23.6172 21.7861 23.7301 21.7013C23.9615 21.5275 24.1896 21.3475 24.4121 21.1623C24.5394 21.0563 24.6657 20.948 24.7871 20.8353C24.8524 20.7748 24.9306 20.6772 25.0245 20.663C25.1285 20.6473 25.2044 20.7682 25.2617 20.8362C25.4274 21.0328 25.5854 21.2374 25.7301 21.4499C25.9926 21.8355 26.2162 22.2298 26.3547 22.6774C26.4123 22.8634 26.3823 23.0821 26.453 23.2571C26.5478 23.4914 26.7762 23.6733 26.892 23.9049C26.9741 24.0691 27.0001 24.2684 27.1057 24.4164C27.879 23.2693 27.349 21.9178 26.6504 20.8703C26.4928 20.634 26.3184 20.4065 26.1369 20.1883C26.0579 20.0934 25.9124 19.9715 25.8838 19.8474C25.8548 19.7216 26.0083 19.5925 26.0801 19.5064C26.2895 19.2552 26.4942 18.9965 26.6729 18.7221C27.1866 17.9333 27.5822 17.0552 27.4749 16.0966C27.3718 15.1752 26.5737 14.6259 25.7418 14.4132C24.2743 14.0381 22.6048 14.4554 21.2069 14.926C20.8608 15.0425 20.5228 15.1769 20.184 15.3124C20.0352 15.3719 19.867 15.4759 19.7066 15.4926C19.4984 15.5143 19.2467 15.3413 19.0588 15.2648C18.5975 15.077 18.1126 14.8793 17.6267 14.7668C17.8728 14.2406 18.0339 13.6969 18.3449 13.1984C18.4964 12.9555 18.6793 12.7155 18.8884 12.5195C18.9976 12.4171 19.1483 12.3448 19.2442 12.2308C19.3684 12.0831 19.4177 11.8357 19.5127 11.664C19.6314 11.4493 19.806 11.2828 19.9453 11.0843C19.6572 11.0843 19.372 11.0687 19.0929 11.1539C18.1744 11.4342 17.5582 12.3103 17.1483 13.1302C16.9992 13.4283 16.8763 13.7392 16.7598 14.0508C16.7178 14.1632 16.6842 14.3591 16.5864 14.4363C16.4883 14.5138 16.3038 14.447 16.1946 14.4259C15.8571 14.3606 15.5135 14.3278 15.1717 14.2953C14.3539 14.2175 13.3726 14.3312 12.6826 14.8019C12.5118 14.9184 12.3673 15.047 12.2398 15.2101C11.2197 16.5159 12.2845 18.2976 13.1411 19.37C13.329 19.6052 13.5281 19.8378 13.7397 20.0519C14.0165 20.3321 14.2964 20.6048 14.592 20.865C14.8697 21.1094 15.1526 21.3445 15.4445 21.5719C15.5983 21.6917 15.8143 21.8098 15.9267 21.9716C16.0382 22.1323 16.0107 22.4201 16.0387 22.6092C16.112 23.1043 16.1698 23.6344 16.331 24.1095Z" fill="#1A1C1C"/>
<path d="M21.0705 11.6117C20.2455 11.7674 19.9548 12.8206 20.48 13.4312C20.7418 13.7357 21.1625 13.8423 21.5479 13.7691C22.2697 13.632 22.6376 12.7775 22.28 12.1414C22.0374 11.7099 21.5463 11.522 21.0705 11.6117Z" fill="#1A1C1C"/>
<path d="M15.8536 20.5293C15.8536 18.8548 15.9089 17.1486 16.331 15.517C15.5641 15.456 14.8566 15.2692 14.0806 15.4006C13.7481 15.4569 13.4094 15.5513 13.1614 15.7929C12.7174 16.2255 12.9216 16.9373 13.1525 17.4264C13.6004 18.3755 14.3313 19.1898 15.1035 19.8872C15.347 20.1072 15.582 20.3436 15.8536 20.5293ZM20.9682 16.1648C21.4193 16.4623 21.9067 16.7115 22.3662 16.9977C22.886 17.3214 23.3839 17.6838 23.8665 18.0598C24.1465 18.278 24.4165 18.5044 24.6848 18.7366C24.7775 18.8168 24.8958 18.9752 25.0245 18.9929C25.1163 19.0055 25.1799 18.9185 25.2331 18.8578C25.3664 18.7059 25.4896 18.5438 25.6094 18.3812C25.9315 17.9436 26.21 17.4724 26.3651 16.9491C26.4445 16.6811 26.4817 16.328 26.3732 16.0625C26.1669 15.5579 25.5356 15.4391 25.0599 15.3714C24.0539 15.228 22.9114 15.4911 21.957 15.801C21.6459 15.9021 21.2318 15.9677 20.9682 16.1648ZM17.3539 15.7898C17.0879 16.5752 17.0334 17.4915 16.9758 18.313C16.8818 19.6541 16.8911 21.0017 17.0767 22.3365C17.1454 22.8307 17.1934 23.3626 17.3539 23.8367C19.2868 23.2078 21.0862 22.2891 22.7413 21.109C23.1413 20.8237 23.5375 20.5196 23.9006 20.1883C23.9973 20.1 24.2345 19.961 24.2345 19.8133C24.2345 19.6655 23.9973 19.5265 23.9006 19.4382C23.5375 19.1069 23.1413 18.8028 22.7413 18.5176C21.0862 17.3374 19.2868 16.4187 17.3539 15.7898Z" fill="#F8DF05"/>
<path d="M19.3316 18.0901C17.8439 18.3531 17.4387 20.3392 18.6156 21.2278C18.7858 21.3562 18.9891 21.4522 19.1952 21.5052C19.4473 21.5701 19.7562 21.5827 20.0135 21.5364C20.2315 21.4972 20.4419 21.4097 20.6273 21.2897C21.8678 20.4866 21.5743 18.5244 20.1499 18.123C19.9005 18.0527 19.587 18.0449 19.3316 18.0901ZM12.5803 20.8509C12.3963 20.8751 12.2259 20.9237 12.0688 21.0254C11.4619 21.4182 11.4256 22.3419 11.9667 22.8066C12.208 23.0138 12.5424 23.0839 12.8531 23.0462C14.0146 22.9053 14.0942 21.1297 12.9554 20.8801C12.8316 20.853 12.7065 20.8343 12.5803 20.8509Z" fill="#1A1C1C"/>
<path d="M22.1616 22.7456C21.8111 23.0003 21.4165 23.198 21.0364 23.404C19.9453 23.9955 18.8069 24.4757 17.6267 24.8597C17.8672 25.5706 18.1674 26.2831 18.6429 26.8714C18.8497 27.1272 19.16 27.4257 19.502 27.4779C20.0285 27.5582 20.4485 27.1905 20.7491 26.8032C21.3745 25.9976 21.7277 24.9558 21.961 23.9731C22.0255 23.7014 22.0817 23.4289 22.1342 23.1548C22.1595 23.0232 22.2074 22.8734 22.1616 22.7456Z" fill="#F8DF05"/>
<path d="M24.753 23.718C23.9789 23.8831 23.6641 24.8543 24.126 25.4734C24.3961 25.8355 24.8691 25.9632 25.2986 25.865C25.9616 25.7134 26.3122 24.9175 26.0148 24.3141C25.7827 23.8434 25.264 23.609 24.753 23.718Z" fill="#1A1C1C"/>
</g>
<path d="M75.4399 23.5614C75.1924 25.5564 73.5574 27.1915 71.5624 27.439C70.3549 27.589 69.2299 27.2589 68.3524 26.6139C67.8499 26.2464 67.9699 25.4664 68.5699 25.2864C70.8274 24.6039 72.6049 22.8189 73.2949 20.5614C73.4749 19.9689 74.2549 19.8489 74.6224 20.3439C75.2599 21.2289 75.5899 22.3539 75.4399 23.5614Z" fill="#F2F2F2"/>
<path d="M66.4925 12.5C63.185 12.5 60.5 15.185 60.5 18.4925C60.5 21.8 63.185 24.485 66.4925 24.485C69.8 24.485 72.485 21.8 72.485 18.4925C72.4775 15.185 69.8 12.5 66.4925 12.5ZM65.7875 17.6525L67.595 18.2825C68.2475 18.515 68.5625 18.9725 68.5625 19.6775C68.5625 20.4875 67.9175 21.155 67.13 21.155H67.0625V21.1925C67.0625 21.5 66.8075 21.755 66.5 21.755C66.1925 21.755 65.9375 21.5 65.9375 21.1925V21.1475C65.105 21.11 64.4375 20.4125 64.4375 19.5425C64.4375 19.235 64.6925 18.98 65 18.98C65.3075 18.98 65.5625 19.235 65.5625 19.5425C65.5625 19.8125 65.7575 20.03 65.9975 20.03H67.1225C67.295 20.03 67.43 19.8725 67.43 19.6775C67.43 19.415 67.385 19.4 67.2125 19.34L65.405 18.71C64.76 18.485 64.4375 18.0275 64.4375 17.315C64.4375 16.505 65.0825 15.8375 65.87 15.8375H65.9375V15.8075C65.9375 15.5 66.1925 15.245 66.5 15.245C66.8075 15.245 67.0625 15.5 67.0625 15.8075V15.8525C67.895 15.89 68.5625 16.5875 68.5625 17.4575C68.5625 17.765 68.3075 18.02 68 18.02C67.6925 18.02 67.4375 17.765 67.4375 17.4575C67.4375 17.1875 67.2425 16.97 67.0025 16.97H65.8775C65.705 16.97 65.57 17.1275 65.57 17.3225C65.5625 17.5775 65.6075 17.5925 65.7875 17.6525Z" fill="#F2F2F2"/>
<defs>
<clipPath id="clip0_9_15">
<rect width="17.4578" height="17.4578" fill="white" transform="translate(10.8072 11.0843)"/>
</clipPath>
</defs>
</svg>
