<?xml version="1.0" encoding="utf-8"?>
<!-- Generator: Adobe Illustrator 24.3.0, SVG Export Plug-In . SVG Version: 6.00 Build 0)  -->
<svg version="1.1" id="Layer_1" xmlns="http://www.w3.org/2000/svg" xmlns:xlink="http://www.w3.org/1999/xlink" x="0px" y="0px"
	 viewBox="0 0 375.4 95.8" style="enable-background:new 0 0 375.4 95.8;" xml:space="preserve">
<style type="text/css">
	.st0{fill:#0A2463;}
	.st1{fill:#2176FF;}
</style>
<g>
	<g>
		<path class="st0" d="M39.8,35.7L32,62.3h-7.2L20,43.8l-4.8,18.6H7.8L0,35.7h6.8L11.5,56l5.1-20.3h7.1l5,20.2l4.7-20.2H39.8z"/>
		<path class="st0" d="M68,51.1H48.6c0.2,1.9,0.8,3.4,2,4.5c1.2,1.1,2.6,1.6,4.4,1.6c2.5,0,4.3-1.1,5.3-3.2h7.2
			c-0.8,2.6-2.2,4.7-4.4,6.3c-2.2,1.6-4.8,2.5-8,2.5c-2.6,0-4.9-0.6-6.9-1.7c-2-1.1-3.6-2.7-4.8-4.8c-1.1-2.1-1.7-4.5-1.7-7.2
			c0-2.8,0.6-5.2,1.7-7.2c1.1-2.1,2.7-3.7,4.7-4.8c2-1.1,4.3-1.7,7-1.7c2.5,0,4.8,0.5,6.8,1.6c2,1.1,3.6,2.6,4.7,4.6
			s1.7,4.3,1.7,6.9C68.2,49.4,68.1,50.3,68,51.1z M61.2,46.5c0-1.7-0.7-3.1-1.9-4.2c-1.2-1-2.7-1.6-4.5-1.6c-1.7,0-3.1,0.5-4.2,1.5
			c-1.1,1-1.8,2.4-2.1,4.2L61.2,46.5L61.2,46.5z"/>
		<path class="st0" d="M73,41.8c1.1-2.1,2.5-3.7,4.4-4.8c1.8-1.1,3.9-1.7,6.2-1.7c2,0,3.7,0.4,5.2,1.2s2.7,1.8,3.6,3v-3.8h6.8v26.6
			h-6.8v-3.9c-0.9,1.2-2.1,2.3-3.6,3.1s-3.3,1.2-5.3,1.2c-2.2,0-4.3-0.6-6.1-1.7c-1.8-1.2-3.3-2.8-4.4-4.9c-1.1-2.1-1.6-4.5-1.6-7.2
			C71.4,46.2,71.9,43.9,73,41.8z M91.3,44.8c-0.6-1.2-1.5-2.1-2.6-2.7c-1.1-0.6-2.3-0.9-3.5-0.9s-2.4,0.3-3.5,0.9s-1.9,1.5-2.6,2.7
			s-1,2.6-1,4.2c0,1.6,0.3,3,1,4.2s1.5,2.1,2.6,2.8c1.1,0.6,2.2,1,3.4,1c1.2,0,2.4-0.3,3.5-0.9c1.1-0.6,2-1.5,2.6-2.7s1-2.6,1-4.2
			S92,46,91.3,44.8z"/>
		<path class="st0" d="M116.7,56.1l6.7-20.4h7.2l-9.8,26.6h-8.2l-9.8-26.6h7.2L116.7,56.1z"/>
		<path class="st0" d="M158.9,51.1h-19.4c0.2,1.9,0.8,3.4,2,4.5c1.2,1.1,2.6,1.6,4.4,1.6c2.5,0,4.3-1.1,5.3-3.2h7.2
			c-0.8,2.6-2.2,4.7-4.4,6.3c-2.2,1.6-4.8,2.5-8,2.5c-2.6,0-4.9-0.6-6.9-1.7c-2-1.1-3.6-2.7-4.8-4.8c-1.1-2.1-1.7-4.5-1.7-7.2
			c0-2.8,0.6-5.2,1.7-7.2c1.1-2.1,2.7-3.7,4.7-4.8c2-1.1,4.3-1.7,7-1.7c2.5,0,4.8,0.5,6.8,1.6c2,1.1,3.6,2.6,4.7,4.6
			c1.1,2,1.7,4.3,1.7,6.9C159.1,49.4,159.1,50.3,158.9,51.1z M152.2,46.5c0-1.7-0.7-3.1-1.9-4.2c-1.2-1-2.7-1.6-4.5-1.6
			c-1.7,0-3.1,0.5-4.2,1.5c-1.1,1-1.8,2.4-2.1,4.2L152.2,46.5L152.2,46.5z"/>
		<path class="st0" d="M174.1,36.6c1.4-0.8,3-1.2,4.8-1.2v7.1h-1.8c-2.1,0-3.7,0.5-4.8,1.5s-1.6,2.7-1.6,5.2v13.2H164V35.7h6.7v4.1
			C171.6,38.5,172.7,37.4,174.1,36.6z"/>
	</g>
	<path class="st1" d="M204.4,62.6v3.8h-24.1v-3.8H204.4z"/>
	<g>
		<path class="st1" d="M247.7,36.5c1.6,0.8,2.8,2.1,3.7,3.8c0.9,1.7,1.4,3.7,1.4,6.1v15.3h-4.3V47c0-2.6-0.6-4.6-1.9-5.9
			s-3-2.1-5.2-2.1s-4,0.7-5.4,2.2c-1.3,1.4-2,3.5-2,6.2v14.3h-4.3V47c0-2.6-0.6-4.6-1.9-5.9c-1.3-1.4-3-2.1-5.2-2.1s-4,0.7-5.4,2.2
			c-1.3,1.4-2,3.5-2,6.2v14.3h-4.3v-26h4.3v3.7c0.9-1.4,2-2.4,3.4-3.1s3-1.1,4.8-1.1c2.2,0,4.1,0.5,5.8,1.5s2.9,2.4,3.7,4.3
			c0.7-1.8,1.9-3.3,3.6-4.3c1.7-1,3.5-1.5,5.6-1.5C244.3,35.2,246.1,35.6,247.7,36.5z"/>
		<path class="st1" d="M259.9,41.6c1.1-2,2.6-3.6,4.4-4.7c1.9-1.1,4-1.7,6.3-1.7s4.2,0.5,5.9,1.5c1.7,1,2.9,2.2,3.7,3.7v-4.7h4.4v26
			h-4.4v-4.8c-0.9,1.5-2.1,2.8-3.8,3.8c-1.7,1-3.7,1.5-5.9,1.5c-2.3,0-4.4-0.6-6.3-1.7c-1.9-1.1-3.3-2.7-4.4-4.8
			c-1.1-2.1-1.6-4.4-1.6-7C258.3,45.9,258.8,43.6,259.9,41.6z M279.1,43.5c-0.8-1.5-1.9-2.6-3.2-3.3c-1.3-0.8-2.8-1.2-4.4-1.2
			s-3.1,0.4-4.4,1.1c-1.3,0.8-2.4,1.9-3.2,3.3c-0.8,1.5-1.2,3.2-1.2,5.1c0,2,0.4,3.7,1.2,5.2c0.8,1.5,1.8,2.6,3.2,3.4
			c1.3,0.8,2.8,1.2,4.4,1.2s3.1-0.4,4.4-1.2c1.3-0.8,2.4-1.9,3.2-3.4c0.8-1.5,1.2-3.2,1.2-5.1C280.3,46.7,279.9,45,279.1,43.5z"/>
		<path class="st1" d="M299.5,36.5c1.4-0.8,3.1-1.2,5.1-1.2v4.5h-1.1c-4.8,0-7.3,2.6-7.3,7.9v14.1h-4.3v-26h4.3V40
			C297,38.4,298.1,37.3,299.5,36.5z"/>
		<path class="st1" d="M324.1,61.7l-10.2-11.5v11.5h-4.3V26.6h4.3v20.6l10-11.5h6l-12.2,12.9l12.3,13L324.1,61.7L324.1,61.7z"/>
		<path class="st1" d="M357.5,50.3h-20.8c0.2,2.6,1,4.6,2.6,6c1.6,1.4,3.5,2.2,5.8,2.2c1.9,0,3.4-0.4,4.7-1.3c1.2-0.9,2.1-2,2.6-3.5
			h4.6c-0.7,2.5-2.1,4.5-4.2,6.1s-4.7,2.3-7.8,2.3c-2.5,0-4.7-0.6-6.6-1.7c-1.9-1.1-3.5-2.7-4.6-4.7s-1.7-4.4-1.7-7.1s0.5-5,1.6-7.1
			c1.1-2,2.6-3.6,4.5-4.7c1.9-1.1,4.2-1.6,6.7-1.6s4.6,0.5,6.5,1.6c1.9,1.1,3.4,2.6,4.4,4.4c1,1.9,1.5,4,1.5,6.4
			C357.7,48.5,357.6,49.4,357.5,50.3z M352.1,42.5c-0.7-1.2-1.7-2.1-3-2.7c-1.2-0.6-2.6-0.9-4.1-0.9c-2.2,0-4,0.7-5.6,2.1
			c-1.5,1.4-2.4,3.3-2.6,5.8h16.4C353.2,45.1,352.9,43.7,352.1,42.5z"/>
		<path class="st1" d="M368.6,39.3v15.3c0,1.3,0.3,2.2,0.8,2.7s1.5,0.8,2.8,0.8h3.2v3.6h-3.9c-2.4,0-4.2-0.6-5.4-1.7
			c-1.2-1.1-1.8-2.9-1.8-5.5V39.3H361v-3.6h3.4v-6.5h4.3v6.5h6.8v3.6C375.5,39.3,368.6,39.3,368.6,39.3z"/>
	</g>
</g>
</svg>
